<svg xmlns="http://www.w3.org/2000/svg" width="256" height="256" viewBox="0 0 100 100"><rect width="100" height="100" rx="50" fill="#07213f"></rect><path fill="#fffdf3" d="M20.44 53.60L16.40 53.60L16.40 62.20Q16.16 62.28 15.76 62.38Q15.36 62.48 14.88 62.48L14.88 62.48Q13.12 62.48 13.12 61L13.12 61L13.12 39.72Q13.12 39.08 13.44 38.74Q13.76 38.40 14.44 38.20L14.44 38.20Q15.60 37.84 17.26 37.68Q18.92 37.52 20.48 37.52L20.48 37.52Q25.56 37.52 27.90 39.66Q30.24 41.80 30.24 45.44L30.24 45.44Q30.24 49.16 27.84 51.38Q25.44 53.60 20.44 53.60L20.44 53.60ZM16.36 50.88L20.24 50.88Q23.44 50.88 25.20 49.56Q26.96 48.24 26.96 45.48L26.96 45.48Q26.96 42.76 25.26 41.50Q23.56 40.24 20.40 40.24L20.40 40.24Q19.32 40.24 18.26 40.34Q17.20 40.44 16.36 40.60L16.36 40.60L16.36 50.88ZM32.88 52.20L32.88 52.20Q32.88 51.24 33.46 50.60Q34.04 49.96 35.08 49.96L35.08 49.96Q36.12 49.96 36.68 50.60Q37.24 51.24 37.24 52.20L37.24 52.20Q37.24 53.12 36.68 53.76Q36.12 54.40 35.08 54.40L35.08 54.40Q34.04 54.40 33.46 53.76Q32.88 53.12 32.88 52.20ZM48.76 53.60L44.72 53.60L44.72 62.20Q44.48 62.28 44.08 62.38Q43.68 62.48 43.20 62.48L43.20 62.48Q41.44 62.48 41.44 61L41.44 61L41.44 39.72Q41.44 39.08 41.76 38.74Q42.08 38.40 42.76 38.20L42.76 38.20Q43.92 37.84 45.58 37.68Q47.24 37.52 48.80 37.52L48.80 37.52Q53.88 37.52 56.22 39.66Q58.56 41.80 58.56 45.44L58.56 45.44Q58.56 49.16 56.16 51.38Q53.76 53.60 48.76 53.60L48.76 53.60ZM44.68 50.88L48.56 50.88Q51.76 50.88 53.52 49.56Q55.28 48.24 55.28 45.48L55.28 45.48Q55.28 42.76 53.58 41.50Q51.88 40.24 48.72 40.24L48.72 40.24Q47.64 40.24 46.58 40.34Q45.52 40.44 44.68 40.60L44.68 40.60L44.68 50.88ZM61.20 52.20L61.20 52.20Q61.20 51.24 61.78 50.60Q62.36 49.96 63.40 49.96L63.40 49.96Q64.44 49.96 65 50.60Q65.56 51.24 65.56 52.20L65.56 52.20Q65.56 53.12 65 53.76Q64.44 54.40 63.40 54.40L63.40 54.40Q62.36 54.40 61.78 53.76Q61.20 53.12 61.20 52.20ZM77.08 53.60L73.04 53.60L73.04 62.20Q72.80 62.28 72.40 62.38Q72 62.48 71.52 62.48L71.52 62.48Q69.76 62.48 69.76 61L69.76 61L69.76 39.72Q69.76 39.08 70.08 38.74Q70.40 38.40 71.08 38.20L71.08 38.20Q72.24 37.84 73.90 37.68Q75.56 37.52 77.12 37.52L77.12 37.52Q82.20 37.52 84.54 39.66Q86.88 41.80 86.88 45.44L86.88 45.44Q86.88 49.16 84.48 51.38Q82.08 53.60 77.08 53.60L77.08 53.60ZM73 50.88L76.88 50.88Q80.08 50.88 81.84 49.56Q83.60 48.24 83.60 45.48L83.60 45.48Q83.60 42.76 81.90 41.50Q80.20 40.24 77.04 40.24L77.04 40.24Q75.96 40.24 74.90 40.34Q73.84 40.44 73 40.60L73 40.60L73 50.88Z"></path></svg>