<?xml version="1.0" encoding="UTF-8"?><svg id="Layer_1" xmlns="http://www.w3.org/2000/svg" xmlns:xlink="http://www.w3.org/1999/xlink" viewBox="0 0 214.98 795.85"><defs><clipPath id="clippath"><rect x="32.63" width="182.35" height="612" fill="none" stroke-width="0"/></clipPath><clipPath id="clippath-1"><rect x="32.63" y="0" width="182.35" height="710.75" fill="none" stroke-width="0"/></clipPath></defs><rect x="-2.46" y="0" width="217.44" height="795.85" fill="#2b2b2b" stroke-width="0"/><g clip-path="url(#clippath)"><path d="M80.19-85.13c25.58,3.2,61.6,14.04,49.08,47.34-6.58,18.75-29.35,41.28-11.57,59.92,5.06,5.1,13.32,10.63,18.75,16.6,10.06,10.86,17.27,25.62,16.31,40.64-.81,11.39-3.17,21.9-2.93,33.17.07,5.35.39,10.99,1.23,16.29,1.98,18.02,13.58,32.88,21.22,48.94,6.47,14.07,10.88,29.11,13.03,44.45,1.56,11.15,1.08,22.47.58,33.64-.75,16.54-.41,33.45.99,49.94,2.07,27.14,6.95,56.73,14.41,81.53,6.39,15.83,13.05,31.57,19.41,47.41,6.44,16,12.51,32.12,18.16,48.41,3.78,19.72,6.68,39.6,7.97,59.67.41,6.69.69,13.39.5,20.12,0,0-.98.19-.98.19-5.19-12.33-9.08-25.17-12.58-38.04-2.94-10.81-7.49-30.54-8.53-37.74-11.52-32.15-20.61-65.08-30.29-97.81-7.18-38.62-12.62-77.73-12.42-117.05,0-16.63,2.21-33.36-.17-49.89-1.86-12.79-5.66-25.78-10.69-37.69-.55-1.2-2.03-4.38-2.6-5.62-5.47-11.34-13.17-21.43-18.01-33.19-6.47-15.88-7.5-33.6-6.04-50.53.49-5.64,1.27-11.15,1.39-16.44.35-12.95-5.72-25.93-16.18-33.53-9.42-6.95-22.11-10.09-28.83-20.6-9.89-15.33-4.57-32.91,5.31-46.5,5.94-8.94,13.96-16.85,16.84-26.87,4.13-16.61-14.37-26.28-27.62-31.07-5.19-1.88-10.54-3.37-15.94-4.74,0,0,.18-.98.18-.98h0Z" fill="#a6b1bb" stroke-width="0"/><path d="M231.73,455.06c-7.62-29.52-13.7-59.42-18.15-89.58-2.14-15.09-4.71-30.15-5.7-45.38-1.45-22.6.36-45.96,1.53-68.55.5-12.59-.33-25.25-3.4-37.49-3.29-13.41-8.21-26.5-16.55-37.54-3.71-5.13-8.02-9.62-12.08-14.62-4.06-4.97-7.81-10.56-10.03-16.71-.4-.99-1.06-2.65-1.3-3.7-6.88-22.58-4.42-47.14,1.64-69.58,3.9-14.83,9.22-28.43,12.59-42.98,2.2-9.18,3.45-18.45,3.07-27.86-.25-4.74-1.13-9.72-1.89-14.96l.9-.44c7.66,7.74,11.99,18.75,12.61,29.63,2.35,41.68-34.85,75.46-27.02,117.9,1.43,9.9,5.72,18.89,12.04,26.62,6.36,7.83,13.46,15.62,18.1,24.75,9.43,18.29,13.75,38.95,13.5,59.43-.1,10.23-1.15,20.34-1.77,30.47-1.03,15.17-1.31,30.39-.6,45.58,3.92,45.46,12,90.63,23.48,134.79,0,0-.97.25-.97.25h0Z" fill="#a6b1bb" stroke-width="0"/></g><g clip-path="url(#clippath-1)"><path d="M173.14-5.49c4.1,12.91,5.45,27.1,1.91,40.3-1.82,6.59-4.69,12.78-7.04,19.14-2.42,6.34-4.4,12.83-6.11,19.39-3.47,13.04-6.52,26.51-5.03,40.06,1.29,13.47,6.38,26.44,13.97,37.6l-.83.56c-7.63-11.31-12.72-24.45-13.98-38.07-1.45-13.66,1.67-27.23,5.21-40.32,1.74-6.57,3.75-13.09,6.2-19.44,2.38-6.37,5.26-12.55,7.09-19.07,1.86-6.52,2.29-13.36,1.95-20.11-.37-6.76-1.64-13.47-3.71-19.93,0,0,.37-.12.37-.12h0Z" fill="#919c9d" stroke-width="0"/><path d="M189.81,330.65c7.31,14,12.26,29.53,12.81,45.38.23,7.94-.65,15.83-1.01,23.71-.43,7.89-.44,15.79-.16,23.69.48,15.74,1.41,31.68,6.27,46.75,4.74,15.02,12.69,29.03,23.23,40.73,0,0-.74.67-.74.67-10.6-11.84-18.57-25.99-23.3-41.14-4.83-15.17-5.73-31.19-6.15-46.99-.25-7.91-.22-15.84.24-23.74.38-7.9,1.28-15.78,1.08-23.67-.17-7.89-1.65-15.7-3.8-23.28-2.18-7.58-5.14-14.95-8.81-21.93,0,0,.34-.18.34-.18h0Z" fill="#919c9d" stroke-width="0"/></g></svg>