<?xml version="1.0" encoding="UTF-8"?>
<svg id="Layer_1" data-name="Layer 1" xmlns="http://www.w3.org/2000/svg" version="1.1" viewBox="0 0 256 256">
  <defs>
    <style>
      .cls-1 {
        fill: #a6b1bb;
      }

      .cls-1, .cls-2 {
        stroke-width: 0px;
      }

      .cls-2 {
        fill: #2b2b2b;
      }
    </style>
  </defs>
  <rect class="cls-1" x="0" width="256" height="256" rx="51.2" ry="51.2"/>
  <path class="cls-2" d="M53,139.6h-13.6v32.4h-10.6v-88h23.1c10.2,0,18.2,2.6,24.1,7.9,5.9,5.3,8.8,12.1,8.8,20.4h0c0,7.8-2.9,14.3-8.7,19.5-5.8,5.2-13.5,7.8-23.1,7.8ZM52.1,93h-12.6v37.6h13.6c6.6,0,11.8-1.7,15.5-5.1,3.7-3.4,5.6-7.8,5.6-13.1h0c0-5.9-1.9-10.6-5.7-14.1-3.8-3.5-9.3-5.2-16.3-5.2ZM124.2,139.6h-13.6v32.4h-10.6v-88h23.1c10.2,0,18.2,2.6,24.1,7.9,5.9,5.3,8.8,12.1,8.8,20.4h0c0,7.8-2.9,14.3-8.8,19.5-5.8,5.2-13.5,7.8-23.1,7.8ZM123.2,93h-12.7v37.6h13.6c6.6,0,11.8-1.7,15.5-5.1,3.8-3.4,5.6-7.8,5.6-13.1h0c0-5.9-1.9-10.6-5.8-14.1-3.8-3.5-9.3-5.2-16.3-5.2ZM195.3,139.6h-13.6v32.4h-10.6v-88h23.1c10.2,0,18.2,2.6,24.1,7.9,5.9,5.3,8.8,12.1,8.8,20.4h0c0,7.8-2.9,14.3-8.7,19.5-5.8,5.2-13.5,7.8-23.1,7.8ZM194.4,93h-12.6v37.6h13.6c6.6,0,11.8-1.7,15.5-5.1,3.7-3.4,5.6-7.8,5.6-13.1h0c0-5.9-1.9-10.6-5.7-14.1-3.8-3.5-9.3-5.2-16.3-5.2Z"/>
</svg>