<?xml version="1.0" encoding="UTF-8"?>
<svg id="Layer_1" data-name="Layer 1" xmlns="http://www.w3.org/2000/svg" xmlns:xlink="http://www.w3.org/1999/xlink" version="1.1" viewBox="0 0 225.2 86.1">
  <defs>
    <style>
      .cls-1 {
        clip-path: url(#clippath);
      }

      .cls-2 {
        fill: none;
      }

      .cls-2, .cls-3 {
        stroke-width: 0px;
      }

      .cls-4 {
        clip-path: url(#clippath-1);
      }

      .cls-5 {
        clip-path: url(#clippath-3);
      }

      .cls-6 {
        clip-path: url(#clippath-2);
      }

      .cls-3 {
        fill: #2b2b2b;
      }
    </style>
    <clipPath id="clippath">
      <rect class="cls-2" x="86.1" y="51" width="16" height="35.1"/>
    </clipPath>
    <clipPath id="clippath-1">
      <polygon class="cls-2" points="70.3 47.5 72.5 47.5 98.6 78.8 98.6 47.5 100.7 47.5 100.7 81.8 98.6 81.8 72.4 50.4 72.4 81.8 70.3 81.8 70.3 47.5"/>
    </clipPath>
    <clipPath id="clippath-2">
      <rect class="cls-2" x="52.1" width="19.8" height="40.6"/>
    </clipPath>
    <clipPath id="clippath-3">
      <rect class="cls-2" x="32.2" y="1.6" width="19.9" height="40.6"/>
    </clipPath>
  </defs>
  <path class="cls-3" d="M0,3.6h2.1v19.4L26.5,3.6h2.9l-15.9,12.7,17.5,21.5h-2.6L11.9,17.6l-9.8,7.7v12.6H0V3.6Z"/>
  <path class="cls-3" d="M77.3,3.6h2.6l16.5,32L112.9,3.6h2.5v34.3h-2V6.5l-16.1,31.3h-1.8l-16.1-31.1v31.1h-2V3.6h0Z"/>
  <path class="cls-3" d="M125.2,3.6h15.7c4,0,7.1.9,9.2,2.6s3.2,4.2,3.2,7.4c0,6.8-4.4,10.1-13.1,10.1h-13.1v14.1h-2.1V3.6h0ZM151.2,13.6c0-2.7-.9-4.7-2.7-6.1-1.8-1.4-4.4-2.1-7.9-2.1h-13.3v16.5h13.1c7.2,0,10.8-2.8,10.8-8.3Z"/>
  <path class="cls-3" d="M160.9,3.6h26.1v1.9h-23.9v13.8h22.8v1.9h-22.8v14.9h24.5l-.5,1.9h-26.1V3.6Z"/>
  <path class="cls-3" d="M14.9,49.4H0v-1.9h32v1.9h-14.9v32.4h-2.1s0-32.4,0-32.4Z"/>
  <path class="cls-3" d="M37.9,47.5h26.1v1.9h-24v13.8h22.8v1.9h-22.8v14.9h24.5l-.5,1.9h-26.1s0-34.3,0-34.3Z"/>
  <path class="cls-3" d="M110.3,64.7c0-3.7.7-6.9,2.2-9.6s3.6-4.8,6.3-6.3c2.7-1.5,5.9-2.2,9.5-2.2s7.5.9,10.1,2.8,4.5,4.6,5.5,8.2l-2,.3c-1-3.2-2.6-5.5-4.9-7.1-2.2-1.6-5.2-2.3-8.8-2.3s-6,.7-8.3,2-4.2,3.2-5.4,5.6c-1.3,2.4-1.9,5.3-1.9,8.6s.7,6.2,1.9,8.6c1.3,2.4,3.1,4.2,5.5,5.5s5.2,1.9,8.4,1.9,7-.9,9.5-2.6c2.4-1.7,4-4.2,4.6-7.5h2.1c-.6,3.7-2.3,6.7-5.2,8.8-2.9,2.1-6.5,3.2-11,3.2s-7-.7-9.7-2.2-4.8-3.5-6.2-6.2-2.2-5.9-2.2-9.6h0Z"/>
  <path class="cls-3" d="M152.4,47.5h26.1v1.9h-23.9v13.8h22.8v1.9h-22.8v14.9h24.5l-.5,1.9h-26.1s0-34.3,0-34.3Z"/>
  <path class="cls-3" d="M224.2,47.5v18.3c0,4.8-1,8.5-2.9,10.9s-4.7,3.7-8.2,3.7c-5.8,0-9.3-3.1-10.6-9.2l-18.6,10.8v-2.8l18.2-10.5c-.1-.9-.2-2-.2-3.4v-15.3h-18v-2.5s40.4,0,40.4,0ZM213.1,77.8c2.9,0,5.1-1,6.6-3s2.3-5.1,2.3-9.2v-15.6h-18v15.4c0,8.3,3,12.4,9.1,12.4h0Z"/>
  <g class="cls-1">
    <path class="cls-3" d="M70.9,51h2.2l26.2,31.3v-31.3h2.1v34.3h-2.2l-26.2-31.3v31.3h-2.1s0-34.3,0-34.3Z"/>
  </g>
  <g class="cls-4">
    <rect class="cls-3" x="70.3" y="47.1" width="16" height="35.1"/>
  </g>
  <g class="cls-6">
    <path class="cls-3" d="M33.5,19.9c0-3.8.8-7.1,2.3-9.8,1.5-2.8,3.7-4.9,6.5-6.3,2.8-1.5,6.1-2.2,9.9-2.2s7.1.7,9.9,2.2c2.8,1.5,5,3.6,6.5,6.3s2.3,6,2.3,9.8-.8,7-2.3,9.8c-1.5,2.8-3.7,4.9-6.5,6.4-2.8,1.5-6.1,2.2-9.9,2.2s-7.1-.7-9.9-2.2c-2.8-1.5-5-3.6-6.5-6.4-1.5-2.8-2.3-6-2.3-9.8ZM35.7,19.9c0,3.4.7,6.3,2,8.8,1.3,2.5,3.2,4.3,5.7,5.7s5.4,2,8.7,2,6.3-.7,8.8-2c2.5-1.3,4.4-3.2,5.7-5.7,1.3-2.5,2-5.4,2-8.8s-.7-6.3-2-8.8c-1.3-2.4-3.2-4.3-5.7-5.7-2.5-1.3-5.4-2-8.8-2s-6.3.7-8.7,2c-2.5,1.3-4.4,3.2-5.7,5.7-1.3,2.4-2,5.4-2,8.8Z"/>
  </g>
  <g class="cls-5">
    <path class="cls-3" d="M70.8,21.5c0-3.8-.8-7.1-2.3-9.8-1.5-2.8-3.7-4.9-6.5-6.3-2.8-1.5-6.1-2.2-9.9-2.2s-7.1.7-10,2.2c-2.8,1.5-5,3.6-6.5,6.3s-2.3,6-2.3,9.8.8,7,2.3,9.8c1.5,2.8,3.7,4.9,6.5,6.4,2.8,1.5,6.1,2.2,10,2.2s7.1-.7,9.9-2.2c2.8-1.5,5-3.6,6.5-6.4,1.5-2.8,2.3-6,2.3-9.8ZM68.5,21.5c0,3.4-.7,6.3-2,8.8-1.3,2.5-3.2,4.3-5.7,5.7-2.5,1.3-5.4,2-8.8,2s-6.3-.7-8.8-2c-2.5-1.3-4.4-3.2-5.7-5.7s-2-5.4-2-8.8.7-6.3,2-8.8,3.2-4.3,5.7-5.7c2.5-1.3,5.4-2,8.8-2s6.3.7,8.8,2c2.5,1.3,4.4,3.2,5.7,5.7s2,5.4,2,8.8Z"/>
  </g>
</svg>